<svg xmlns="http://www.w3.org/2000/svg" viewBox="5.40625 13.16796875 89.90234375 75.515625" style="stroke-width: 0px;" preserveAspectRatio="xMidYMid meet">
    <g>
        <path fill-rule="evenodd" clip-rule="evenodd" d="M84.519 59.916h2.697c4.46 0 8.091-3.74 8.091-8.379v-29.99c0-4.639-3.631-8.379-8.091-8.379h-44.95c-4.46 0-8.091 3.74-8.091 8.379v6.005h7.192v-7.193h46.748v32.364H84.52v7.193zM47.804 27.552H58.34c.073-.394-2.302-3.203-5.286-3.203-2.985.001-5.359 2.81-5.25 3.203zm-31.609 37.54v12.804h53.94V65.092s-14.24-6.581-22.008-5.176c-7.803 1.405-11.831 6.184-16.649 6.401-4.82.18-9.387-7.081-15.283-1.225zm4.961-14.777c0 3.561 2.805 6.399 6.293 6.399 3.452 0 6.293-2.838 6.293-6.399 0-3.525-2.841-6.363-6.293-6.363-3.488 0-6.293 2.838-6.293 6.363zm-6.292-19.168c-5.215 0-9.458 4.277-9.458 9.601v38.335c0 5.323 4.243 9.6 9.458 9.6h56.637c5.18 0 9.422-4.277 9.422-9.6V40.749c0-5.324-4.241-9.601-9.422-9.601H14.864zm-2.265 7.193h61.132v43.152H12.599V38.34z"></path>
    </g>
</svg>