<svg xmlns="http://www.w3.org/2000/svg" viewBox="19.1015625 21.5 294.69921875 546.19921875" style="stroke-width: 0px;" preserveAspectRatio="xMidYMid meet">
    <g>
        <path d="M301.8 231.6H27.5c-3.6 0-8.4 4.8-8.4 8.4v42c0 32.4 27.6 57.6 59.4 57.6h24.6c11.4 0 19.8 10.8 18 21.6L96 505.3c0 35.4 28.8 62.4 64.2 62.4h3.6c35.4 0 64.2-26.4 64.2-62.4l-22.2-144.7c-1.8-11.4 6.6-21.6 18-21.6h25.8c32.4 0 63-25.2 63-57.6v-42c1.2-3-6.6-7.8-10.8-7.8zM167.4 517.9c-1.2 0-2.4 1.2-4.2 1.2H162c-1.2 0-1.8-1.2-3-1.2-10.2-1.8-15.6-13.2-12-22.2l12.6-32.4c.6-1.2 1.2-4.2 2.4-4.2s2.4 2.4 3 3.6l12 31.8c4.8 9.6 0 21.6-9.6 23.4z"></path>
        <path d="M309.6 195.6H23.3c-1.8 0-3 1.2-3 3v22.8c0 1.8 1.2 3 3 3H309c1.8 0 3-1.2 3-3v-22.8c.6-1.8-1.2-3-2.4-3z"></path>
        <path d="M293.4 21.5h-10.2l-3 111c0 .6-1.2 1.8-1.2 1.2l-6-112.2h-15.6l-3 111c0 .6-1.2 1.8-1.2 1.2l-6-112.2H74.9l-2.4 38.4c0 .6-1.2 1.8-1.2 1.2l-2.4-39.6H37.1c-9.6 0-17.4 3.6-17.4 13.8V186c0 1.2 1.2 3.6 2.4 3.6H309c1.2 0 4.8-2.4 4.8-3.6V34.7c0-9.6-10.8-13.2-20.4-13.2z"></path>
    </g>
</svg>